{
	"patcher" : 	{
		"fileversion" : 1,
		"appversion" : 		{
			"major" : 5,
			"minor" : 1,
			"revision" : 9
		}
,
		"rect" : [ 569.0, 156.0, 469.0, 417.0 ],
		"bglocked" : 0,
		"defrect" : [ 569.0, 156.0, 469.0, 417.0 ],
		"openrect" : [ 0.0, 0.0, 0.0, 0.0 ],
		"openinpresentation" : 0,
		"default_fontsize" : 12.0,
		"default_fontface" : 0,
		"default_fontname" : "Arial",
		"gridonopen" : 0,
		"gridsize" : [ 15.0, 15.0 ],
		"gridsnaponopen" : 0,
		"toolbarvisible" : 1,
		"boxanimatetime" : 200,
		"imprint" : 0,
		"enablehscroll" : 1,
		"enablevscroll" : 1,
		"devicewidth" : 0.0,
		"boxes" : [ 			{
				"box" : 				{
					"maxclass" : "message",
					"text" : "0",
					"outlettype" : [ "" ],
					"fontname" : "Arial",
					"patching_rect" : [ 91.0, 215.0, 32.5, 18.0 ],
					"id" : "obj-14",
					"fontsize" : 12.0,
					"numinlets" : 2,
					"numoutlets" : 1
				}

			}
, 			{
				"box" : 				{
					"maxclass" : "newobj",
					"text" : "gate 2",
					"outlettype" : [ "", "" ],
					"fontname" : "Arial",
					"patching_rect" : [ 66.0, 189.0, 44.0, 20.0 ],
					"id" : "obj-12",
					"fontsize" : 12.0,
					"numinlets" : 2,
					"numoutlets" : 2
				}

			}
, 			{
				"box" : 				{
					"maxclass" : "newobj",
					"text" : "bach.expr ($x1 == 0 && $x2 == 0)+1 @out t",
					"outlettype" : [ "" ],
					"fontname" : "Arial",
					"patching_rect" : [ 78.0, 157.0, 243.0, 20.0 ],
					"id" : "obj-8",
					"fontsize" : 12.0,
					"numinlets" : 2,
					"numoutlets" : 1
				}

			}
, 			{
				"box" : 				{
					"maxclass" : "outlet",
					"patching_rect" : [ 80.5, 370.0, 25.0, 25.0 ],
					"id" : "obj-1",
					"numinlets" : 1,
					"numoutlets" : 0,
					"comment" : "llll: Phases"
				}

			}
, 			{
				"box" : 				{
					"maxclass" : "newobj",
					"text" : "bach.portal 2 @out p",
					"outlettype" : [ "", "", "" ],
					"fontname" : "Arial",
					"patching_rect" : [ 29.0, 335.0, 122.0, 20.0 ],
					"id" : "obj-11",
					"fontsize" : 12.0,
					"numinlets" : 2,
					"numoutlets" : 3
				}

			}
, 			{
				"box" : 				{
					"maxclass" : "newobj",
					"text" : "t b l",
					"outlettype" : [ "bang", "" ],
					"fontname" : "Arial",
					"patching_rect" : [ 29.0, 57.0, 40.5, 20.0 ],
					"id" : "obj-10",
					"fontsize" : 12.0,
					"numinlets" : 1,
					"numoutlets" : 2
				}

			}
, 			{
				"box" : 				{
					"maxclass" : "newobj",
					"text" : "bach.collect 2",
					"outlettype" : [ "", "" ],
					"fontname" : "Arial",
					"patching_rect" : [ 29.0, 303.0, 84.0, 20.0 ],
					"id" : "obj-9",
					"fontsize" : 12.0,
					"numinlets" : 4,
					"numoutlets" : 2
				}

			}
, 			{
				"box" : 				{
					"maxclass" : "newobj",
					"text" : "bach.expr sqrt($x1*$x1+$x2*$x2)",
					"outlettype" : [ "" ],
					"fontname" : "Arial",
					"patching_rect" : [ 51.0, 267.0, 188.0, 20.0 ],
					"id" : "obj-7",
					"fontsize" : 12.0,
					"numinlets" : 2,
					"numoutlets" : 1
				}

			}
, 			{
				"box" : 				{
					"maxclass" : "newobj",
					"text" : "t l l l",
					"outlettype" : [ "", "", "" ],
					"fontname" : "Arial",
					"patching_rect" : [ 51.0, 121.0, 46.0, 20.0 ],
					"id" : "obj-6",
					"fontsize" : 12.0,
					"numinlets" : 1,
					"numoutlets" : 3
				}

			}
, 			{
				"box" : 				{
					"maxclass" : "newobj",
					"text" : "bach.expr atan($x2/$x1)+3.1415926536*($x1 < 0) * (($x2 > 0)*2-1)",
					"outlettype" : [ "" ],
					"fontname" : "Arial",
					"patching_rect" : [ 72.0, 242.0, 365.0, 20.0 ],
					"id" : "obj-5",
					"fontsize" : 12.0,
					"numinlets" : 2,
					"numoutlets" : 1
				}

			}
, 			{
				"box" : 				{
					"maxclass" : "newobj",
					"text" : "bach.iter 2",
					"outlettype" : [ "", "", "", "", "int" ],
					"fontname" : "Arial",
					"patching_rect" : [ 51.0, 92.0, 73.0, 20.0 ],
					"id" : "obj-3",
					"fontsize" : 12.0,
					"numinlets" : 3,
					"numoutlets" : 5
				}

			}
, 			{
				"box" : 				{
					"maxclass" : "inlet",
					"outlettype" : [ "" ],
					"patching_rect" : [ 29.0, 15.0, 25.0, 25.0 ],
					"id" : "obj-17",
					"numinlets" : 0,
					"numoutlets" : 1,
					"comment" : "llll: Real/x Parts"
				}

			}
, 			{
				"box" : 				{
					"maxclass" : "inlet",
					"outlettype" : [ "" ],
					"patching_rect" : [ 78.0, 15.0, 25.0, 25.0 ],
					"id" : "obj-18",
					"numinlets" : 0,
					"numoutlets" : 1,
					"comment" : "llll: Imaginary/y Parts"
				}

			}
, 			{
				"box" : 				{
					"maxclass" : "outlet",
					"patching_rect" : [ 29.0, 370.0, 25.0, 25.0 ],
					"id" : "obj-19",
					"numinlets" : 1,
					"numoutlets" : 0,
					"comment" : "llll: Amplitudes"
				}

			}
 ],
		"lines" : [ 			{
				"patchline" : 				{
					"source" : [ "obj-14", 0 ],
					"destination" : [ "obj-9", 2 ],
					"hidden" : 0,
					"midpoints" : [  ]
				}

			}
, 			{
				"patchline" : 				{
					"source" : [ "obj-12", 1 ],
					"destination" : [ "obj-14", 0 ],
					"hidden" : 0,
					"midpoints" : [  ]
				}

			}
, 			{
				"patchline" : 				{
					"source" : [ "obj-12", 0 ],
					"destination" : [ "obj-5", 0 ],
					"hidden" : 0,
					"midpoints" : [  ]
				}

			}
, 			{
				"patchline" : 				{
					"source" : [ "obj-6", 1 ],
					"destination" : [ "obj-12", 1 ],
					"hidden" : 0,
					"midpoints" : [ 74.0, 181.0, 100.5, 181.0 ]
				}

			}
, 			{
				"patchline" : 				{
					"source" : [ "obj-6", 2 ],
					"destination" : [ "obj-8", 0 ],
					"hidden" : 0,
					"midpoints" : [  ]
				}

			}
, 			{
				"patchline" : 				{
					"source" : [ "obj-3", 0 ],
					"destination" : [ "obj-6", 0 ],
					"hidden" : 0,
					"midpoints" : [  ]
				}

			}
, 			{
				"patchline" : 				{
					"source" : [ "obj-6", 0 ],
					"destination" : [ "obj-7", 0 ],
					"hidden" : 0,
					"midpoints" : [  ]
				}

			}
, 			{
				"patchline" : 				{
					"source" : [ "obj-8", 0 ],
					"destination" : [ "obj-12", 0 ],
					"hidden" : 0,
					"midpoints" : [  ]
				}

			}
, 			{
				"patchline" : 				{
					"source" : [ "obj-3", 2 ],
					"destination" : [ "obj-8", 1 ],
					"hidden" : 0,
					"midpoints" : [  ]
				}

			}
, 			{
				"patchline" : 				{
					"source" : [ "obj-5", 0 ],
					"destination" : [ "obj-9", 2 ],
					"hidden" : 0,
					"midpoints" : [  ]
				}

			}
, 			{
				"patchline" : 				{
					"source" : [ "obj-3", 2 ],
					"destination" : [ "obj-5", 1 ],
					"hidden" : 0,
					"midpoints" : [  ]
				}

			}
, 			{
				"patchline" : 				{
					"source" : [ "obj-7", 0 ],
					"destination" : [ "obj-9", 1 ],
					"hidden" : 0,
					"midpoints" : [  ]
				}

			}
, 			{
				"patchline" : 				{
					"source" : [ "obj-3", 2 ],
					"destination" : [ "obj-7", 1 ],
					"hidden" : 0,
					"midpoints" : [  ]
				}

			}
, 			{
				"patchline" : 				{
					"source" : [ "obj-9", 0 ],
					"destination" : [ "obj-11", 0 ],
					"hidden" : 0,
					"midpoints" : [  ]
				}

			}
, 			{
				"patchline" : 				{
					"source" : [ "obj-9", 1 ],
					"destination" : [ "obj-11", 1 ],
					"hidden" : 0,
					"midpoints" : [  ]
				}

			}
, 			{
				"patchline" : 				{
					"source" : [ "obj-11", 0 ],
					"destination" : [ "obj-19", 0 ],
					"hidden" : 0,
					"midpoints" : [  ]
				}

			}
, 			{
				"patchline" : 				{
					"source" : [ "obj-11", 1 ],
					"destination" : [ "obj-1", 0 ],
					"hidden" : 0,
					"midpoints" : [  ]
				}

			}
, 			{
				"patchline" : 				{
					"source" : [ "obj-18", 0 ],
					"destination" : [ "obj-3", 1 ],
					"hidden" : 0,
					"midpoints" : [  ]
				}

			}
, 			{
				"patchline" : 				{
					"source" : [ "obj-17", 0 ],
					"destination" : [ "obj-10", 0 ],
					"hidden" : 0,
					"midpoints" : [  ]
				}

			}
, 			{
				"patchline" : 				{
					"source" : [ "obj-3", 4 ],
					"destination" : [ "obj-9", 3 ],
					"hidden" : 0,
					"midpoints" : [  ]
				}

			}
, 			{
				"patchline" : 				{
					"source" : [ "obj-10", 1 ],
					"destination" : [ "obj-3", 0 ],
					"hidden" : 0,
					"midpoints" : [  ]
				}

			}
, 			{
				"patchline" : 				{
					"source" : [ "obj-10", 0 ],
					"destination" : [ "obj-9", 0 ],
					"hidden" : 0,
					"midpoints" : [  ]
				}

			}
 ]
	}

}
